{"title":"Arrow S02E22 HDTV x264 AAC E-Subs [GWC].mp4","uid":10111985,"size":131643393,"categoryP":"video","categoryS":"tv_shows","magnet":"?xt=urn:btih:fae1f5e8046b5542bd167d9e1f8c415e1e40844a&amp;dn=Arrow+S02E22+HDTV+x264+AAC+E-Subs+%5BGWC%5D.mp4&amp;tr=udp%3A%2F%2Ftracker.openbittorrent.com%3A80&amp;tr=udp%3A%2F%2Fopen.demonii.com%3A1337&amp;tr=udp%3A%2F%2Ftracker.coppersurfer.tk%3A6969&amp;tr=udp%3A%2F%2Fexodus.desync.com%3A6969","seeders":1,"leechers":0,"uploader":"canc232","files":1,"time":1399529372,"description":"Arrow S02E22 HDTV x264 AAC E-Subs [GWC]\n\n\nSTORYLINE :\nSpoiled billionaire playboy Oliver Queen is missing and presumed dead when his yacht is lost at sea. He returns five years later a changed man, determined to clean up the city as a hooded vigilante armed with a bow. \n\n\nSCREENS : &lt;a href=&quot;\nhttp://i.imgur.com/mLibQgd.jpg&quot; rel=&quot;nofollow&quot; target=&quot;_NEW&quot;&gt;\nhttp://i.imgur.com/mLibQgd.jpg&lt;/a&gt; &lt;a href=&quot;\nhttp://i.imgur.com/GaUSc35.jpg&quot; rel=&quot;nofollow&quot; target=&quot;_NEW&quot;&gt;\nhttp://i.imgur.com/GaUSc35.jpg&lt;/a&gt; &lt;a href=&quot;\nhttp://i.imgur.com/kyDrfAs.jpg&quot; rel=&quot;nofollow&quot; target=&quot;_NEW&quot;&gt;\nhttp://i.imgur.com/kyDrfAs.jpg&lt;/a&gt;\n\n\nMEDIA INFO :\nGeneral \nFormat : MPEG-4 \nFormat profile : Base Media \nFile size : 126 MiB \nDuration : 42mn 11s \nOverall bit rate mode : Variable \nOverall bit rate : 416 Kbps \n\nVideo \nFormat : AVC \nFormat profile : &lt;a class=&quot;__cf_email__&quot; href=&quot;/cdn-cgi/l/email-protection&quot; data-cfemail=&quot;e9a1808e81a9a5dac7d9&quot;&gt;[email&amp;#160;protected]&lt;/a&gt;&lt;script cf-hash='f9e31' type=&quot;text/javascript&quot;&gt;\n/* &lt;![CDATA[ */!function(){try{var t=&quot;currentScript&quot;in document?document.currentScript:function(){for(var t=document.getElementsByTagName(&quot;script&quot;),e=t.length;e--;)if(t[e].getAttribute(&quot;cf-hash&quot;))return t[e]}();if(t&amp;&amp;t.previousSibling){var e,r,n,i,c=t.previousSibling,a=c.getAttribute(&quot;data-cfemail&quot;);if(a){for(e=&quot;&quot;,r=parseInt(a.substr(0,2),16),n=2;a.length-n;n+=2)i=parseInt(a.substr(n,2),16)^r,e+=String.fromCharCode(i);e=document.createTextNode(e),c.parentNode.replaceChild(e,c)}}}catch(u){}}();/* ]]&gt; */&lt;/script&gt; \nFormat settings, CABAC : Yes \nFormat settings, ReFrames : 4 frames \nDuration : 42mn 2s \nBit rate : 354 Kbps \nMaximum bit rate : 1 786 Kbps \nWidth : 720 pixels \nHeight : 404 pixels \nDisplay aspect ratio : 16:9 \nFrame rate : 23.976 fps \nStream size : 107 MiB (85%) \nTitle : Arrow S02E22 HDTV x264 AAC E-Subs [GWC] \nWriting library : x264 core\n\nAudio \nFormat : AAC \nFormat profile : HE-AAC / LC \nDuration : 42mn 3s \nBit rate mode : Variable \nChannel(s) : 2 channels \nSampling rate : 48.0 KHz / 24.0 KHz \nStream size : 18.1 MiB (14%) \nLanguage : English \n\nText \nFormat : Timed Text \nTitle : English Subtitle by elderman \nLanguage : English \n\n","torrent":{"xt":"urn:btih:fae1f5e8046b5542bd167d9e1f8c415e1e40844a","amp;dn":"Arrow+S02E22+HDTV+x264+AAC+E-Subs+%5BGWC%5D.mp4","amp;tr":["udp%3A%2F%2Ftracker.openbittorrent.com%3A80","udp%3A%2F%2Fopen.demonii.com%3A1337","udp%3A%2F%2Ftracker.coppersurfer.tk%3A6969","udp%3A%2F%2Fexodus.desync.com%3A6969"],"infoHash":"fae1f5e8046b5542bd167d9e1f8c415e1e40844a","infoHashBuffer":{"type":"Buffer","data":[250,225,245,232,4,107,85,66,189,22,125,158,31,140,65,94,30,64,132,74]},"announce":[],"urlList":[]}}